<svg xmlns="http://www.w3.org/2000/svg" xmlns:xlink="http://www.w3.org/1999/xlink" width="1920" zoomAndPan="magnify" viewBox="0 0 1440 809.999993" height="1080" preserveAspectRatio="xMidYMid meet" version="1.0"><defs><g/><clipPath id="1337f22661"><path d="M 218.59375 424 L 1221.34375 424 L 1221.34375 731.730469 L 218.59375 731.730469 Z M 218.59375 424 " clip-rule="nonzero"/></clipPath><clipPath id="a01c91ca37"><path d="M 372 77.617188 L 911 77.617188 L 911 548 L 372 548 Z M 372 77.617188 " clip-rule="nonzero"/></clipPath><clipPath id="2c5e94eb1f"><path d="M 372 77.855469 L 1221.34375 77.855469 L 1221.34375 547.257812 L 372 547.257812 Z M 372 77.855469 " clip-rule="nonzero"/></clipPath></defs><g clip-path="url(#1337f22661)"><path fill="#000000" d="M 339.480469 589.828125 C 339.480469 589.828125 701.253906 333.074219 1221.480469 460.011719 C 1221.480469 460.011719 766.410156 411.964844 218.59375 731.730469 L 339.480469 589.828125 " fill-opacity="1" fill-rule="nonzero"/></g><g clip-path="url(#a01c91ca37)"><path fill="#0097b2" d="M 762.414062 77.855469 L 478.875 77.855469 L 478.875 140.507812 L 710.300781 140.507812 L 372.023438 547.207031 L 910.625 77.855469 L 762.414062 77.855469 " fill-opacity="1" fill-rule="nonzero"/></g><g clip-path="url(#2c5e94eb1f)"><path fill="#000000" d="M 615.292969 432.921875 L 910.625 77.855469 L 372.023438 547.207031 C 420.25 519.101562 520.199219 468.160156 659.027344 434.839844 C 805.9375 390.042969 997.644531 360.234375 1221.480469 391.046875 C 970.164062 343.15625 759.84375 383.128906 615.292969 432.921875 " fill-opacity="1" fill-rule="nonzero"/></g><g fill="#000000" fill-opacity="1"><g transform="translate(679.869349, 484.645268)"><g><path d="M 1.578125 0.0625 C 1.359375 0.0625 1.179688 0 1.046875 -0.125 C 0.921875 -0.25 0.859375 -0.414062 0.859375 -0.625 C 0.859375 -0.832031 0.921875 -1 1.046875 -1.125 C 1.179688 -1.257812 1.359375 -1.328125 1.578125 -1.328125 C 1.804688 -1.328125 1.984375 -1.265625 2.109375 -1.140625 C 2.234375 -1.015625 2.296875 -0.847656 2.296875 -0.640625 C 2.296875 -0.429688 2.226562 -0.257812 2.09375 -0.125 C 1.96875 0 1.796875 0.0625 1.578125 0.0625 Z M 1.578125 0.0625 "/></g></g></g></svg>